<?xml version="1.0" encoding="UTF-8"?>
<svg width="48px" height="48px" viewBox="0 0 48 48" version="1.1" xmlns="http://www.w3.org/2000/svg" xmlns:xlink="http://www.w3.org/1999/xlink">
    <!-- Generator: Sketch 44.1 (41455) - http://www.bohemiancoding.com/sketch -->
    <title>circle-arrow-icon</title>
    <desc>Created with Sketch.</desc>
    <defs></defs>
    <g id="Assets" stroke="none" stroke-width="1" fill="none" fill-rule="evenodd">
        <g id="Artboard" transform="translate(-593.000000, -115.000000)" fill="#FFFFFF">
            <g id="Dark" transform="translate(526.000000, 0.000000)">
                <path d="M91,163 C77.745166,163 67,152.254834 67,139 C67,125.745166 77.745166,115 91,115 C104.254834,115 115,125.745166 115,139 C115,152.254834 104.254834,163 91,163 Z M95.7533767,139.99835 L92.2721361,143.293006 C91.8769385,143.683947 91.8769385,144.315853 92.2721361,144.706794 C92.6683342,145.097735 93.3096548,145.097735 93.7048524,144.706794 L98.5557779,140.060341 C98.841921,139.776384 99,139.40144 99,138.9995 C99,138.59856 98.841921,138.221617 98.5557779,137.939659 L93.7048524,133.293206 C93.3096548,132.902265 92.6683342,132.902265 92.2721361,133.293206 C91.8769385,133.683148 91.8769385,134.316053 92.2721361,134.706994 L95.7513757,137.99865 L84.0005003,137.99865 C83.4482241,137.99865 83,138.446583 83,138.9985 C83,139.550417 83.4482241,139.99835 84.0005003,139.99835 L95.7533767,139.99835 Z" id="circle-arrow-icon"></path>
            </g>
        </g>
    </g>
</svg>