<?xml version="1.0" encoding="utf-8"?>
<!-- Generator: Adobe Illustrator 22.0.1, SVG Export Plug-In . SVG Version: 6.00 Build 0)  -->
<svg version="1.1" id="Layer_1" xmlns="http://www.w3.org/2000/svg" xmlns:xlink="http://www.w3.org/1999/xlink" x="0px" y="0px"
	 viewBox="0 0 12 12" style="enable-background:new 0 0 12 12;" xml:space="preserve">
<style type="text/css">
	.st0{fill:#FFFFFF;}
</style>
<title>link-arrow-icon-white</title>
<desc>Created with Sketch.</desc>
<g id="Assets">
	<g id="Artboard" transform="translate(-247.000000, -116.000000)">
		<g id="Dark" transform="translate(163.000000, 0.000000)">
			<g id="Link-Arrow" transform="translate(84.000000, 116.000000)">
				<path id="Arrow-Right-Icon" class="st0" d="M11,7c0.6,0,1-0.4,1-1s-0.4-1-1-1H3.2l2.5-2.3c0.4-0.4,0.4-1,0-1.4
					c-0.4-0.4-1-0.4-1.4,0L0.4,4.9C0.2,5.2,0,5.6,0,6c0,0.4,0.2,0.8,0.4,1.1l3.9,3.6c0.4,0.4,1,0.4,1.4,0c0.4-0.4,0.4-1,0-1.4L3.2,7
					H11z"/>
			</g>
		</g>
	</g>
</g>
</svg>
