<?xml version="1.0" encoding="UTF-8"?>
<svg width="8px" height="8px" viewBox="0 0 8 8" version="1.1" xmlns="http://www.w3.org/2000/svg" xmlns:xlink="http://www.w3.org/1999/xlink">
    <!-- Generator: Sketch 44.1 (41455) - http://www.bohemiancoding.com/sketch -->
    <title>close-small-icon</title>
    <desc>Created with Sketch.</desc>
    <defs></defs>
    <g id="Assets" stroke="none" stroke-width="1" fill="none" fill-rule="evenodd">
        <g id="Artboard" transform="translate(-64.000000, -81.000000)" fill-rule="nonzero" fill="#787E8C">
            <g id="Close" transform="translate(64.000000, 81.000000)">
                <path d="M0.195262146,1.13807119 C-0.065087382,0.87772166 -0.065087382,0.455611674 0.195262146,0.195262146 C0.455611674,-0.065087382 0.87772166,-0.065087382 1.13807119,0.195262146 L4,3.05719096 L6.86192881,0.195262146 C7.12227834,-0.065087382 7.54438833,-0.065087382 7.80473785,0.195262146 C8.06508738,0.455611674 8.06508738,0.87772166 7.80473785,1.13807119 L4.94280904,4 L7.80473785,6.86192881 C8.06508738,7.12227834 8.06508738,7.54438833 7.80473785,7.80473785 C7.54438833,8.06508738 7.12227834,8.06508738 6.86192881,7.80473785 L4,4.94280904 L1.13807119,7.80473785 C0.87772166,8.06508738 0.455611674,8.06508738 0.195262146,7.80473785 C-0.065087382,7.54438833 -0.065087382,7.12227834 0.195262146,6.86192881 L3.05719096,4 L0.195262146,1.13807119 Z" id="close-small-icon"></path>
            </g>
        </g>
    </g>
</svg>