<?xml version="1.0" encoding="UTF-8"?>
<svg width="756px" height="90px" viewBox="0 0 756 90" version="1.1" xmlns="http://www.w3.org/2000/svg" xmlns:xlink="http://www.w3.org/1999/xlink">
    <!-- Generator: Sketch 44.1 (41455) - http://www.bohemiancoding.com/sketch -->
    <title>MARCO</title>
    <desc>Created with Sketch.</desc>
    <defs>
        <linearGradient x1="0%" y1="50%" x2="100%" y2="50%" id="linearGradient-1">
            <stop stop-color="#FF753E" offset="0%"></stop>
            <stop stop-color="#FFB731" offset="100%"></stop>
        </linearGradient>
    </defs>
    <g id="Assets" stroke="none" stroke-width="1" fill="none" fill-rule="evenodd">
        <g id="Artboard" transform="translate(-1697.000000, -164.000000)" fill="url(#linearGradient-1)">
            <path d="M1742.02,213.04 C1742.82,214.560008 1743.59,216.139992 1744.33,217.78 C1745.07,219.420008 1745.78,221.099991 1746.46,222.82 C1747.14,221.059991 1747.86,219.350008 1748.62,217.69 C1749.38,216.029992 1750.16,214.420008 1750.96,212.86 L1773.4,168.7 C1773.8,167.939996 1774.21,167.350002 1774.63,166.93 C1775.05,166.509998 1775.52,166.200001 1776.04,166 C1776.56,165.799999 1777.15,165.68 1777.81,165.64 C1778.47,165.6 1779.24,165.58 1780.12,165.58 L1795.6,165.58 L1795.6,253 L1777.72,253 L1777.72,202.72 C1777.72,200.279988 1777.84,197.640014 1778.08,194.8 L1754.92,239.74 C1754.2,241.140007 1753.23001,242.199996 1752.01,242.92 C1750.78999,243.640004 1749.40001,244 1747.84,244 L1745.08,244 C1743.51999,244 1742.13001,243.640004 1740.91,242.92 C1739.68999,242.199996 1738.72,241.140007 1738,239.74 L1714.72,194.74 C1714.88,196.140007 1715,197.529993 1715.08,198.91 C1715.16,200.290007 1715.2,201.559994 1715.2,202.72 L1715.2,253 L1697.32,253 L1697.32,165.58 L1712.8,165.58 C1713.68,165.58 1714.45,165.6 1715.11,165.64 C1715.77,165.68 1716.36,165.799999 1716.88,166 C1717.4,166.200001 1717.87,166.509998 1718.29,166.93 C1718.71,167.350002 1719.12,167.939996 1719.52,168.7 L1742.02,213.04 Z M1969.36,253 L1953.64,253 C1951.87999,253 1950.43001,252.590004 1949.29,251.77 C1948.14999,250.949996 1947.36,249.900006 1946.92,248.62 L1941.76,233.38 L1908.52,233.38 L1903.36,248.62 C1902.96,249.740006 1902.18001,250.749996 1901.02,251.65 C1899.85999,252.550005 1898.44001,253 1896.76,253 L1880.92,253 L1914.76,165.58 L1935.52,165.58 L1969.36,253 Z M1913.2,219.58 L1937.08,219.58 L1929.04,195.64 C1928.52,194.119992 1927.91,192.33001 1927.21,190.27 C1926.51,188.20999 1925.82,185.980012 1925.14,183.58 C1924.5,186.020012 1923.84,188.27999 1923.16,190.36 C1922.48,192.44001 1921.84,194.239992 1921.24,195.76 L1913.2,219.58 Z M2074.72,220.66 L2074.72,253 L2054.44,253 L2054.44,165.58 L2082.88,165.58 C2089.20003,165.58 2094.58998,166.229994 2099.05,167.53 C2103.51002,168.830006 2107.14999,170.639988 2109.97,172.96 C2112.79001,175.280012 2114.83999,178.019984 2116.12,181.18 C2117.40001,184.340016 2118.04,187.779981 2118.04,191.5 C2118.04,194.340014 2117.66,197.019987 2116.9,199.54 C2116.14,202.060013 2115.01001,204.389989 2113.51,206.53 C2112.00999,208.670011 2110.17001,210.579992 2107.99,212.26 C2105.80999,213.940008 2103.30001,215.319995 2100.46,216.4 C2101.82001,217.080003 2103.08999,217.919995 2104.27,218.92 C2105.45001,219.920005 2106.48,221.139993 2107.36,222.58 L2125.96,253 L2107.6,253 C2104.19998,253 2101.76001,251.720013 2100.28,249.16 L2085.76,223.78 C2085.12,222.659994 2084.37,221.860002 2083.51,221.38 C2082.65,220.899998 2081.44001,220.66 2079.88,220.66 L2074.72,220.66 Z M2074.72,206.68 L2082.88,206.68 C2085.64001,206.68 2087.98999,206.330004 2089.93,205.63 C2091.87001,204.929997 2093.45999,203.960006 2094.7,202.72 C2095.94001,201.479994 2096.84,200.030008 2097.4,198.37 C2097.96,196.709992 2098.24,194.92001 2098.24,193 C2098.24,189.159981 2096.99001,186.160011 2094.49,184 C2091.98999,181.839989 2088.12003,180.76 2082.88,180.76 L2074.72,180.76 L2074.72,206.68 Z M2267.98,230.38 C2268.46,230.38 2268.94,230.469999 2269.42,230.65 C2269.9,230.830001 2270.36,231.139998 2270.8,231.58 L2278.84,240.04 C2275.31998,244.640023 2270.91003,248.109988 2265.61,250.45 C2260.30997,252.790012 2254.04004,253.96 2246.8,253.96 C2240.15997,253.96 2234.21003,252.830011 2228.95,250.57 C2223.68997,248.309989 2219.23002,245.19002 2215.57,241.21 C2211.90998,237.22998 2209.10001,232.510027 2207.14,227.05 C2205.17999,221.589973 2204.2,215.660032 2204.2,209.26 C2204.2,202.739967 2205.31999,196.750027 2207.56,191.29 C2209.80001,185.829973 2212.92998,181.12002 2216.95,177.16 C2220.97002,173.19998 2225.77997,170.120011 2231.38,167.92 C2236.98003,165.719989 2243.15997,164.62 2249.92,164.62 C2253.20002,164.62 2256.28999,164.909997 2259.19,165.49 C2262.09001,166.070003 2264.79999,166.869995 2267.32,167.89 C2269.84001,168.910005 2272.15999,170.129993 2274.28,171.55 C2276.40001,172.970007 2278.27999,174.539991 2279.92,176.26 L2273.08,185.44 C2272.64,186.000003 2272.12,186.509998 2271.52,186.97 C2270.92,187.430002 2270.08001,187.66 2269,187.66 C2268.28,187.66 2267.6,187.500002 2266.96,187.18 C2266.32,186.859998 2265.64,186.470002 2264.92,186.01 C2264.2,185.549998 2263.41,185.050003 2262.55,184.51 C2261.69,183.969997 2260.67001,183.470002 2259.49,183.01 C2258.30999,182.549998 2256.93001,182.160002 2255.35,181.84 C2253.76999,181.519998 2251.92001,181.36 2249.8,181.36 C2246.11998,181.36 2242.76002,182.009994 2239.72,183.31 C2236.67998,184.610006 2234.07001,186.469988 2231.89,188.89 C2229.70999,191.310012 2228.01001,194.239983 2226.79,197.68 C2225.56999,201.120017 2224.96,204.979979 2224.96,209.26 C2224.96,213.740022 2225.56999,217.719983 2226.79,221.2 C2228.01001,224.680017 2229.66999,227.609988 2231.77,229.99 C2233.87001,232.370012 2236.31999,234.179994 2239.12,235.42 C2241.92001,236.660006 2244.91998,237.28 2248.12,237.28 C2249.96001,237.28 2251.63999,237.190001 2253.16,237.01 C2254.68001,236.829999 2256.08999,236.520002 2257.39,236.08 C2258.69001,235.639998 2259.92999,235.070003 2261.11,234.37 C2262.29001,233.669996 2263.47999,232.800005 2264.68,231.76 C2265.16,231.359998 2265.68,231.030001 2266.24,230.77 C2266.8,230.509999 2267.38,230.38 2267.98,230.38 Z M2452.36,209.26 C2452.36,215.580032 2451.27001,221.459973 2449.09,226.9 C2446.90999,232.340027 2443.84002,237.06998 2439.88,241.09 C2435.91998,245.11002 2431.15003,248.259989 2425.57,250.54 C2419.98997,252.820011 2413.80003,253.96 2407,253.96 C2400.19997,253.96 2394.00003,252.820011 2388.4,250.54 C2382.79997,248.259989 2378.01002,245.11002 2374.03,241.09 C2370.04998,237.06998 2366.97001,232.340027 2364.79,226.9 C2362.60999,221.459973 2361.52,215.580032 2361.52,209.26 C2361.52,202.939968 2362.60999,197.060027 2364.79,191.62 C2366.97001,186.179973 2370.04998,181.46002 2374.03,177.46 C2378.01002,173.45998 2382.79997,170.320011 2388.4,168.04 C2394.00003,165.759989 2400.19997,164.62 2407,164.62 C2413.80003,164.62 2419.98997,165.769989 2425.57,168.07 C2431.15003,170.370012 2435.91998,173.51998 2439.88,177.52 C2443.84002,181.52002 2446.90999,186.239973 2449.09,191.68 C2451.27001,197.120027 2452.36,202.979969 2452.36,209.26 Z M2431.6,209.26 C2431.6,204.939978 2431.04001,201.050017 2429.92,197.59 C2428.79999,194.129983 2427.19001,191.200012 2425.09,188.8 C2422.98999,186.399988 2420.42002,184.560006 2417.38,183.28 C2414.33998,181.999994 2410.88002,181.36 2407,181.36 C2403.07998,181.36 2399.59002,181.999994 2396.53,183.28 C2393.46998,184.560006 2390.89001,186.399988 2388.79,188.8 C2386.68999,191.200012 2385.08001,194.129983 2383.96,197.59 C2382.83999,201.050017 2382.28,204.939978 2382.28,209.26 C2382.28,213.620022 2382.83999,217.529983 2383.96,220.99 C2385.08001,224.450017 2386.68999,227.379988 2388.79,229.78 C2390.89001,232.180012 2393.46998,234.009994 2396.53,235.27 C2399.59002,236.530006 2403.07998,237.16 2407,237.16 C2410.88002,237.16 2414.33998,236.530006 2417.38,235.27 C2420.42002,234.009994 2422.98999,232.180012 2425.09,229.78 C2427.19001,227.379988 2428.79999,224.450017 2429.92,220.99 C2431.04001,217.529983 2431.6,213.620022 2431.6,209.26 Z" id="MARCO"></path>
        </g>
    </g>
</svg>