<?xml version="1.0" encoding="UTF-8"?>
<svg width="68px" height="15px" viewBox="0 0 68 15" version="1.1" xmlns="http://www.w3.org/2000/svg" xmlns:xlink="http://www.w3.org/1999/xlink">
    <!-- Generator: Sketch 44.1 (41455) - http://www.bohemiancoding.com/sketch -->
    <title>marco-logo-white</title>
    <desc>Created with Sketch.</desc>
    <defs></defs>
    <g id="Assets" stroke="none" stroke-width="1" fill="none" fill-rule="evenodd">
        <g id="Artboard" transform="translate(-574.000000, -299.000000)" fill="#FFFFFF">
            <g id="Dark" transform="translate(414.000000, 0.000000)">
                <path d="M160,313 L160,300.175 L161.88542,300.175 C162.284982,300.175 162.54719,300.362498 162.672053,300.7375 L162.871833,301.6875 C163.096586,301.437499 163.331741,301.208334 163.577304,301 C163.822868,300.791666 164.085076,300.612501 164.363937,300.4625 C164.642797,300.312499 164.942464,300.19375 165.262945,300.10625 C165.583427,300.01875 165.935119,299.975 166.318032,299.975 C167.125478,299.975 167.789323,300.193748 168.309585,300.63125 C168.829847,301.068752 169.218997,301.649996 169.477047,302.375 C169.676828,301.949998 169.92655,301.585418 170.226221,301.28125 C170.525892,300.977082 170.854693,300.729168 171.212633,300.5375 C171.570573,300.345832 171.9514,300.204167 172.355123,300.1125 C172.758846,300.020833 173.164645,299.975 173.57253,299.975 C174.280087,299.975 174.908554,300.083332 175.457951,300.3 C176.007348,300.516668 176.469333,300.833331 176.843922,301.25 C177.218511,301.666669 177.50361,302.174997 177.699229,302.775 C177.894847,303.375003 177.992655,304.062496 177.992655,304.8375 L177.992655,313 L174.908557,313 L174.908557,304.8375 C174.908557,304.020829 174.729589,303.406252 174.371649,302.99375 C174.013709,302.581248 173.489292,302.375 172.798384,302.375 C172.482065,302.375 172.188641,302.429166 171.918105,302.5375 C171.647569,302.645834 171.410333,302.802082 171.20639,303.00625 C171.002447,303.210418 170.842209,303.466665 170.72567,303.775 C170.609132,304.083335 170.550863,304.437498 170.550863,304.8375 L170.550863,313 L167.454278,313 L167.454278,304.8375 C167.454278,303.979162 167.281554,303.354169 166.9361,302.9625 C166.590646,302.570831 166.080797,302.375 165.406537,302.375 C164.965355,302.375 164.551232,302.485416 164.164157,302.70625 C163.777082,302.927084 163.417066,303.229165 163.084098,303.6125 L163.084098,313 L160,313 Z M191.065736,313 L189.679765,313 C189.388418,313 189.159506,312.95625 188.993022,312.86875 C188.826539,312.78125 188.701677,312.604168 188.618436,312.3375 L188.343739,311.425 C188.019095,311.716668 187.700699,311.972916 187.388542,312.19375 C187.076385,312.414584 186.753827,312.599999 186.420859,312.75 C186.087892,312.900001 185.734119,313.0125 185.35953,313.0875 C184.984941,313.1625 184.568738,313.2 184.110907,313.2 C183.569834,313.2 183.07039,313.127084 182.61256,312.98125 C182.154729,312.835416 181.761417,312.616668 181.432611,312.325 C181.103805,312.033332 180.84784,311.670836 180.664708,311.2375 C180.481576,310.804165 180.390011,310.300003 180.390011,309.725 C180.390011,309.241664 180.516953,308.764586 180.770841,308.29375 C181.024729,307.822914 181.447175,307.397919 182.038193,307.01875 C182.629211,306.639581 183.415835,306.325001 184.39809,306.075 C185.380345,305.824999 186.599821,305.683334 188.056555,305.65 L188.056555,304.9 C188.056555,304.041662 187.875507,303.406252 187.513404,302.99375 C187.151302,302.581248 186.624805,302.375 185.933896,302.375 C185.434445,302.375 185.018241,302.433333 184.685274,302.55 C184.352306,302.666667 184.063044,302.797916 183.817481,302.94375 C183.571917,303.089584 183.345086,303.220833 183.136981,303.3375 C182.928876,303.454167 182.699965,303.5125 182.450239,303.5125 C182.242134,303.5125 182.063166,303.458334 181.913331,303.35 C181.763495,303.241666 181.642796,303.108334 181.55123,302.95 L180.98935,301.9625 C182.462732,300.612493 184.239921,299.9375 186.32097,299.9375 C187.070147,299.9375 187.738154,300.060415 188.325009,300.30625 C188.911865,300.552085 189.409228,300.893748 189.817113,301.33125 C190.224999,301.768752 190.535071,302.291664 190.747337,302.9 C190.959604,303.508336 191.065736,304.174996 191.065736,304.9 L191.065736,313 Z M185.072347,311.075 C185.388666,311.075 185.680008,311.045834 185.946383,310.9875 C186.212757,310.929166 186.46456,310.841667 186.701799,310.725 C186.939039,310.608333 187.167951,310.464584 187.388542,310.29375 C187.609133,310.122916 187.831802,309.920835 188.056555,309.6875 L188.056555,307.525 C187.157542,307.566667 186.406295,307.643749 185.802791,307.75625 C185.199287,307.868751 184.71441,308.012499 184.348145,308.1875 C183.981881,308.362501 183.721754,308.566665 183.567756,308.8 C183.413759,309.033335 183.336761,309.287499 183.336761,309.5625 C183.336761,310.104169 183.496999,310.491666 183.817481,310.725 C184.137962,310.958334 184.556247,311.075 185.072347,311.075 Z M194.09989,313 L194.09989,300.175 L195.910393,300.175 C196.226712,300.175 196.4473,300.233333 196.572163,300.35 C196.697026,300.466667 196.780267,300.666665 196.821888,300.95 L197.009181,302.5 C197.467012,301.708329 198.003914,301.083336 198.619905,300.625 C199.235895,300.166664 199.926793,299.9375 200.692618,299.9375 C201.325257,299.9375 201.849674,300.083332 202.265883,300.375 L201.866324,302.6875 C201.841351,302.837501 201.787245,302.94375 201.704003,303.00625 C201.620761,303.06875 201.508386,303.1 201.366875,303.1 C201.242012,303.1 201.071368,303.070834 200.854939,303.0125 C200.63851,302.954166 200.35133,302.925 199.99339,302.925 C199.352427,302.925 198.803038,303.102082 198.345207,303.45625 C197.887377,303.810418 197.500308,304.329163 197.183988,305.0125 L197.183988,313 L194.09989,313 Z M213.303709,302.8875 C213.212143,303.004167 213.122659,303.095833 213.035255,303.1625 C212.947851,303.229167 212.820909,303.2625 212.654425,303.2625 C212.496266,303.2625 212.34227,303.214584 212.192435,303.11875 C212.042599,303.022916 211.863632,302.914584 211.655527,302.79375 C211.447422,302.672916 211.199781,302.564584 210.912596,302.46875 C210.625412,302.372916 210.269558,302.325 209.845024,302.325 C209.303951,302.325 208.829479,302.422916 208.421594,302.61875 C208.013708,302.814584 207.674503,303.095831 207.403966,303.4625 C207.13343,303.829168 206.931571,304.272914 206.798384,304.79375 C206.665197,305.314586 206.598604,305.904163 206.598604,306.5625 C206.598604,307.245837 206.67144,307.854164 206.817113,308.3875 C206.962787,308.920836 207.17297,309.368748 207.447668,309.73125 C207.722366,310.093752 208.055329,310.368749 208.446566,310.55625 C208.837803,310.743751 209.278979,310.8375 209.770107,310.8375 C210.261234,310.8375 210.658708,310.777084 210.962541,310.65625 C211.266374,310.535416 211.52234,310.402084 211.730444,310.25625 C211.938549,310.110416 212.119598,309.977084 212.273595,309.85625 C212.427593,309.735416 212.600317,309.675 212.791774,309.675 C213.0415,309.675 213.228791,309.770832 213.353654,309.9625 L214.240176,311.0875 C213.898884,311.487502 213.528463,311.822915 213.128902,312.09375 C212.729341,312.364585 212.315218,312.581249 211.886522,312.74375 C211.457826,312.906251 211.01457,313.020833 210.556739,313.0875 C210.098908,313.154167 209.645246,313.1875 209.19574,313.1875 C208.404942,313.1875 207.659937,313.039585 206.960705,312.74375 C206.261473,312.447915 205.651735,312.016669 205.131473,311.45 C204.611211,310.88333 204.199169,310.189587 203.895336,309.36875 C203.591503,308.547913 203.439589,307.612505 203.439589,306.5625 C203.439589,305.620829 203.574855,304.747921 203.845391,303.94375 C204.115927,303.139579 204.513402,302.443753 205.037826,301.85625 C205.56225,301.268747 206.211528,300.808335 206.985678,300.475 C207.759828,300.141665 208.650503,299.975 209.65773,299.975 C210.615013,299.975 211.453663,300.129165 212.173705,300.4375 C212.893748,300.745835 213.540945,301.187497 214.115314,301.7625 L213.303709,302.8875 Z M221.681968,299.975 C222.639251,299.975 223.507035,300.129165 224.285347,300.4375 C225.063659,300.745835 225.727504,301.183331 226.2769,301.75 C226.826297,302.316669 227.250825,303.008329 227.550496,303.825 C227.850167,304.641671 228,305.554162 228,306.5625 C228,307.579172 227.850167,308.495829 227.550496,309.3125 C227.250825,310.129171 226.826297,310.824997 226.2769,311.4 C225.727504,311.975003 225.063659,312.416665 224.285347,312.725 C223.507035,313.033335 222.639251,313.1875 221.681968,313.1875 C220.724686,313.1875 219.854821,313.033335 219.072347,312.725 C218.289872,312.416665 217.621866,311.975003 217.068307,311.4 C216.514748,310.824997 216.086059,310.129171 215.782225,309.3125 C215.478392,308.495829 215.326478,307.579172 215.326478,306.5625 C215.326478,305.554162 215.478392,304.641671 215.782225,303.825 C216.086059,303.008329 216.514748,302.316669 217.068307,301.75 C217.621866,301.183331 218.289872,300.745835 219.072347,300.4375 C219.854821,300.129165 220.724686,299.975 221.681968,299.975 Z M221.681968,310.8125 C222.747465,310.8125 223.536171,310.45417 224.048109,309.7375 C224.560047,309.02083 224.816012,307.97084 224.816012,306.5875 C224.816012,305.20416 224.560047,304.150004 224.048109,303.425 C223.536171,302.699996 222.747465,302.3375 221.681968,302.3375 C220.599823,302.3375 219.800713,302.70208 219.284613,303.43125 C218.768513,304.16042 218.510466,305.212493 218.510466,306.5875 C218.510466,307.962507 218.768513,309.010413 219.284613,309.73125 C219.800713,310.452087 220.599823,310.8125 221.681968,310.8125 Z" id="marco-logo-white"></path>
            </g>
        </g>
    </g>
</svg>