<?xml version="1.0" encoding="UTF-8"?>
<svg width="68px" height="15px" viewBox="0 0 68 15" version="1.1" xmlns="http://www.w3.org/2000/svg" xmlns:xlink="http://www.w3.org/1999/xlink">
    <!-- Generator: Sketch 44.1 (41455) - http://www.bohemiancoding.com/sketch -->
    <title>marco-logo</title>
    <desc>Created with Sketch.</desc>
    <defs></defs>
    <g id="Assets" stroke="none" stroke-width="1" fill="none" fill-rule="evenodd">
        <g id="Artboard" transform="translate(-414.000000, -299.000000)" fill="#2E323C">
            <g id="Dark" transform="translate(414.000000, 0.000000)">
                <path d="M0,313 L0,300.175 L1.88542049,300.175 C2.2849818,300.175 2.54718997,300.362498 2.67205288,300.7375 L2.87183254,301.6875 C3.09658577,301.437499 3.33174072,301.208334 3.57730444,301 C3.82286816,300.791666 4.08507634,300.612501 4.36393683,300.4625 C4.64279733,300.312499 4.94246382,300.19375 5.26294528,300.10625 C5.58342675,300.01875 5.93511866,299.975 6.31803158,299.975 C7.12547839,299.975 7.7893229,300.193748 8.30958502,300.63125 C8.82984714,301.068752 9.21899736,301.649996 9.47704737,302.375 C9.67682803,301.949998 9.9265501,301.585418 10.2262211,301.28125 C10.5258921,300.977082 10.8546928,300.729168 11.2126331,300.5375 C11.5705735,300.345832 11.9513996,300.204167 12.355123,300.1125 C12.7588464,300.020833 13.1646448,299.975 13.5725303,299.975 C14.2800868,299.975 14.908554,300.083332 15.4579508,300.3 C16.0073476,300.516668 16.4693334,300.833331 16.8439221,301.25 C17.2185109,301.666669 17.5036102,302.174997 17.6992288,302.775 C17.8948473,303.375003 17.9926552,304.062496 17.9926552,304.8375 L17.9926552,313 L14.9085567,313 L14.9085567,304.8375 C14.9085567,304.020829 14.7295893,303.406252 14.3716489,302.99375 C14.0137086,302.581248 13.4892922,302.375 12.7983841,302.375 C12.4820648,302.375 12.1886413,302.429166 11.918105,302.5375 C11.6475687,302.645834 11.4103328,302.802082 11.20639,303.00625 C11.0024473,303.210418 10.8422089,303.466665 10.7256702,303.775 C10.6091315,304.083335 10.550863,304.437498 10.550863,304.8375 L10.550863,313 L7.45427837,313 L7.45427837,304.8375 C7.45427837,303.979162 7.28155394,303.354169 6.93609989,302.9625 C6.59064584,302.570831 6.08079661,302.375 5.40653691,302.375 C4.96535463,302.375 4.5512322,302.485416 4.16415718,302.70625 C3.77708216,302.927084 3.41706618,303.229165 3.08409842,303.6125 L3.08409842,313 L0,313 Z M31.0657363,313 L29.679765,313 C29.3884182,313 29.1595063,312.95625 28.9930224,312.86875 C28.8265385,312.78125 28.7016775,312.604168 28.6184355,312.3375 L28.3437385,311.425 C28.019095,311.716668 27.7006993,311.972916 27.388542,312.19375 C27.0763848,312.414584 26.7538271,312.599999 26.4208593,312.75 C26.0878916,312.900001 25.7341187,313.0125 25.3595299,313.0875 C24.9849412,313.1625 24.5687378,313.2 24.1109071,313.2 C23.5698345,313.2 23.0703903,313.127084 22.6125597,312.98125 C22.154729,312.835416 21.7614167,312.616668 21.4326111,312.325 C21.1038054,312.033332 20.8478403,311.670836 20.664708,311.2375 C20.4815758,310.804165 20.390011,310.300003 20.390011,309.725 C20.390011,309.241664 20.5169531,308.764586 20.770841,308.29375 C21.0247289,307.822914 21.4471754,307.397919 22.0381932,307.01875 C22.6292109,306.639581 23.4158355,306.325001 24.3980903,306.075 C25.3803452,305.824999 26.5998213,305.683334 28.0565553,305.65 L28.0565553,304.9 C28.0565553,304.041662 27.8755068,303.406252 27.5134043,302.99375 C27.1513019,302.581248 26.6248045,302.375 25.9338964,302.375 C25.4344448,302.375 25.0182414,302.433333 24.6852736,302.55 C24.3523058,302.666667 24.0630444,302.797916 23.8174807,302.94375 C23.571917,303.089584 23.3450861,303.220833 23.1369813,303.3375 C22.9288764,303.454167 22.6999645,303.5125 22.4502387,303.5125 C22.2421339,303.5125 22.0631664,303.458334 21.9133309,303.35 C21.7634954,303.241666 21.6427964,303.108334 21.5512303,302.95 L20.98935,301.9625 C22.4627323,300.612493 24.239921,299.9375 26.3209695,299.9375 C27.070147,299.9375 27.7381535,300.060415 28.3250092,300.30625 C28.9118649,300.552085 29.409228,300.893748 29.8171135,301.33125 C30.224999,301.768752 30.5350706,302.291664 30.7473375,302.9 C30.9596044,303.508336 31.0657363,304.174996 31.0657363,304.9 L31.0657363,313 Z M25.0723467,311.075 C25.388666,311.075 25.6800085,311.045834 25.9463827,310.9875 C26.2127569,310.929166 26.46456,310.841667 26.7017995,310.725 C26.939039,310.608333 27.1679509,310.464584 27.388542,310.29375 C27.6091332,310.122916 27.831802,309.920835 28.0565553,309.6875 L28.0565553,307.525 C27.1575423,307.566667 26.4062951,307.643749 25.802791,307.75625 C25.199287,307.868751 24.71441,308.012499 24.3481454,308.1875 C23.9818809,308.362501 23.7217537,308.566665 23.5677562,308.8 C23.4137586,309.033335 23.3367609,309.287499 23.3367609,309.5625 C23.3367609,310.104169 23.4969993,310.491666 23.8174807,310.725 C24.1379622,310.958334 24.5562467,311.075 25.0723467,311.075 Z M34.0998898,313 L34.0998898,300.175 L35.9103929,300.175 C36.2267123,300.175 36.4473001,300.233333 36.5721631,300.35 C36.697026,300.466667 36.7802667,300.666665 36.8218876,300.95 L37.0091811,302.5 C37.4670117,301.708329 38.0039142,301.083336 38.6199045,300.625 C39.2358949,300.166664 39.9267926,299.9375 40.6926184,299.9375 C41.3252572,299.9375 41.8496735,300.083332 42.2658832,300.375 L41.8663239,302.6875 C41.8413513,302.837501 41.7872449,302.94375 41.7040029,303.00625 C41.620761,303.06875 41.5083861,303.1 41.3668748,303.1 C41.2420119,303.1 41.0713684,303.070834 40.8549394,303.0125 C40.6385104,302.954166 40.35133,302.925 39.9933896,302.925 C39.3524267,302.925 38.8030382,303.102082 38.3452075,303.45625 C37.8873768,303.810418 37.5003076,304.329163 37.1839882,305.0125 L37.1839882,313 L34.0998898,313 Z M53.3037091,302.8875 C53.212143,303.004167 53.1226593,303.095833 53.0352552,303.1625 C52.9478512,303.229167 52.8209091,303.2625 52.6544253,303.2625 C52.4962656,303.2625 52.3422703,303.214584 52.1924348,303.11875 C52.0425993,303.022916 51.8636318,302.914584 51.655527,302.79375 C51.4474221,302.672916 51.1997811,302.564584 50.9125964,302.46875 C50.6254117,302.372916 50.2695578,302.325 49.8450239,302.325 C49.3039513,302.325 48.8294793,302.422916 48.4215938,302.61875 C48.0137083,302.814584 47.6745025,303.095831 47.4039662,303.4625 C47.1334299,303.829168 46.9315712,304.272914 46.7983841,304.79375 C46.665197,305.314586 46.5986045,305.904163 46.5986045,306.5625 C46.5986045,307.245837 46.6714401,307.854164 46.8171135,308.3875 C46.9627869,308.920836 47.1729696,309.368748 47.447668,309.73125 C47.7223664,310.093752 48.0553292,310.368749 48.4465663,310.55625 C48.8378034,310.743751 49.2789791,310.8375 49.7701065,310.8375 C50.2612339,310.8375 50.6587082,310.777084 50.9625413,310.65625 C51.2663744,310.535416 51.5223395,310.402084 51.7304444,310.25625 C51.9385492,310.110416 52.1195977,309.977084 52.2735953,309.85625 C52.4275929,309.735416 52.6003173,309.675 52.7917738,309.675 C53.0414996,309.675 53.2287911,309.770832 53.3536541,309.9625 L54.2401763,311.0875 C53.8988843,311.487502 53.5284633,311.822915 53.1289019,312.09375 C52.7293406,312.364585 52.3152182,312.581249 51.8865222,312.74375 C51.4578262,312.906251 51.0145696,313.020833 50.5567389,313.0875 C50.0989082,313.154167 49.6452465,313.1875 49.19574,313.1875 C48.4049416,313.1875 47.6599374,313.039585 46.9607051,312.74375 C46.2614728,312.447915 45.6517348,312.016669 45.1314726,311.45 C44.6112105,310.88333 44.1991691,310.189587 43.895336,309.36875 C43.5915029,308.547913 43.4395887,307.612505 43.4395887,306.5625 C43.4395887,305.620829 43.5748548,304.747921 43.8453911,303.94375 C44.1159274,303.139579 44.5134017,302.443753 45.0378259,301.85625 C45.5622501,301.268747 46.2115275,300.808335 46.9856776,300.475 C47.7598276,300.141665 48.650503,299.975 49.6577304,299.975 C50.6150127,299.975 51.4536627,300.129165 52.1737055,300.4375 C52.8937482,300.745835 53.5409446,301.187497 54.115314,301.7625 L53.3037091,302.8875 Z M61.6819684,299.975 C62.6392507,299.975 63.5070349,300.129165 64.285347,300.4375 C65.0636592,300.745835 65.7275037,301.183331 66.2769005,301.75 C66.8262973,302.316669 67.2508248,303.008329 67.5504958,303.825 C67.8501668,304.641671 68,305.554162 68,306.5625 C68,307.579172 67.8501668,308.495829 67.5504958,309.3125 C67.2508248,310.129171 66.8262973,310.824997 66.2769005,311.4 C65.7275037,311.975003 65.0636592,312.416665 64.285347,312.725 C63.5070349,313.033335 62.6392507,313.1875 61.6819684,313.1875 C60.7246861,313.1875 59.8548209,313.033335 59.0723467,312.725 C58.2898724,312.416665 57.6218659,311.975003 57.068307,311.4 C56.5147481,310.824997 56.0860586,310.129171 55.7822255,309.3125 C55.4783924,308.495829 55.3264781,307.579172 55.3264781,306.5625 C55.3264781,305.554162 55.4783924,304.641671 55.7822255,303.825 C56.0860586,303.008329 56.5147481,302.316669 57.068307,301.75 C57.6218659,301.183331 58.2898724,300.745835 59.0723467,300.4375 C59.8548209,300.129165 60.7246861,299.975 61.6819684,299.975 Z M61.6819684,310.8125 C62.7474652,310.8125 63.5361708,310.45417 64.0481087,309.7375 C64.5600466,309.02083 64.8160118,307.97084 64.8160118,306.5875 C64.8160118,305.20416 64.5600466,304.150004 64.0481087,303.425 C63.5361708,302.699996 62.7474652,302.3375 61.6819684,302.3375 C60.5998232,302.3375 59.8007126,302.70208 59.2846126,303.43125 C58.7685125,304.16042 58.5104664,305.212493 58.5104664,306.5875 C58.5104664,307.962507 58.7685125,309.010413 59.2846126,309.73125 C59.8007126,310.452087 60.5998232,310.8125 61.6819684,310.8125 Z" id="marco-logo"></path>
            </g>
        </g>
    </g>
</svg>